<svg xmlns="http://www.w3.org/2000/svg" width="48" height="48" viewBox="0 0 48 48">
  <title>page-first-solid</title>
  <g id="Layer_2" data-name="Layer 2">
    <g id="invisible_box" data-name="invisible box">
      <rect width="48" height="48" fill="none"/>
    </g>
    <g id="icons_Q2" data-name="icons Q2">
      <path d="M14,42V6a2,2,0,0,0-4,0V42a2,2,0,0,0,4,0Z"/>
      <path d="M26.8,24,37.4,34.6a1.9,1.9,0,0,1-.2,3,2.1,2.1,0,0,1-2.7-.2l-11.9-12a1.9,1.9,0,0,1,0-2.8l11.9-12a2.1,2.1,0,0,1,2.7-.2,1.9,1.9,0,0,1,.2,3Z"/>
    </g>
  </g>
</svg>
