<svg xmlns="http://www.w3.org/2000/svg" width="48" height="48" viewBox="0 0 48 48">
  <title>refresh-setting</title>
  <g id="Layer_2" data-name="Layer 2">
    <g id="invisible_box" data-name="invisible box">
      <rect width="48" height="48" fill="none"/>
    </g>
    <g id="icons_Q2" data-name="icons Q2">
      <path d="M33,25V23l-3.3-.8a4.2,4.2,0,0,0-.4-1l1.8-2.9-1.4-1.4-2.9,1.8-1-.4L25,15H23l-.8,3.3-1,.4-2.9-1.8-1.4,1.4,1.8,2.9a4.2,4.2,0,0,0-.4,1L15,23v2l3.3.8a4.2,4.2,0,0,0,.4,1l-1.8,2.9,1.4,1.4,2.9-1.8,1,.4L23,33h2l.8-3.3,1-.4,2.9,1.8,1.4-1.4-1.8-2.9a4.2,4.2,0,0,0,.4-1Zm-9,1a2,2,0,1,1,2-2A2,2,0,0,1,24,26Z"/>
      <path d="M4,5.1V14a2,2,0,0,0,2,2h9a2,2,0,0,0,2-2.3A2.1,2.1,0,0,0,14.9,12H10.6A18,18,0,0,1,41.9,22.2a2,2,0,0,0,2,1.8h0a2,2,0,0,0,2-2.2A22,22,0,0,0,8,8.9V5A2,2,0,0,0,5.7,3,2.1,2.1,0,0,0,4,5.1Z"/>
      <path d="M44,42.9V34a2,2,0,0,0-2-2H33a2,2,0,0,0-2,2.3A2.1,2.1,0,0,0,33.1,36h4.3A18,18,0,0,1,6.1,25.8a2,2,0,0,0-2-1.8h0a2,2,0,0,0-2,2.2A22,22,0,0,0,40,39.1V43a2,2,0,0,0,2.3,2A2.1,2.1,0,0,0,44,42.9Z"/>
    </g>
  </g>
</svg>
