<svg xmlns="http://www.w3.org/2000/svg" width="48" height="48" viewBox="0 0 48 48">
  <g id="Layer_2" data-name="Layer 2">
    <g id="invisible_box" data-name="invisible box">
      <rect width="48" height="48" fill="none"/>
    </g>
    <g id="Layer_4" data-name="Layer 4">
      <g>
        <path d="M26,16.4V5a2,2,0,0,0-4,0V16.4a4.5,4.5,0,0,1,2-.4A4.5,4.5,0,0,1,26,16.4Z"/>
        <path d="M17.6,41.4a5.1,5.1,0,0,1-3.5-1.5A5,5,0,0,1,13,34.6a5,5,0,0,1,0-9.2,5,5,0,0,1,1.1-5.3,5.1,5.1,0,0,1,3.5-1.5,5.3,5.3,0,0,1,1.8.4,4.7,4.7,0,0,1,.6-.9A6.1,6.1,0,0,0,13.9,13a5.9,5.9,0,0,0-5.6,4L2.6,30.9v.2A10,10,0,0,0,5,41.6,11,11,0,0,0,12.9,45a12,12,0,0,0,3.3-.5l2.4-.7A2,2,0,0,0,20,42l-.6-1A5.3,5.3,0,0,1,17.6,41.4Z"/>
        <path d="M45.4,31.1,39.7,17A6,6,0,0,0,34,13a5.8,5.8,0,0,0-5.9,5.1,3.6,3.6,0,0,1,.5.9,5.3,5.3,0,0,1,1.8-.4,5.1,5.1,0,0,1,3.5,1.5A5,5,0,0,1,35,25.4a5,5,0,0,1,0,9.2,5,5,0,0,1-1.1,5.3,5.1,5.1,0,0,1-3.5,1.5,5.3,5.3,0,0,1-1.8-.4L28,42a2,2,0,0,0,1.4,1.8l2.4.7a12,12,0,0,0,3.3.5A11,11,0,0,0,43,41.6,10,10,0,0,0,45.4,31.1Z"/>
        <path d="M29.9,37.2a.9.9,0,0,0,1.3-1.3l-.9-1.8a1.6,1.6,0,0,1-.1-1.5,1.7,1.7,0,0,1,1.1-1.1l2-.5a1.1,1.1,0,0,0,0-2l-1.9-.5a1.7,1.7,0,0,1-1.2-1.1,1.6,1.6,0,0,1,.1-1.5l.9-1.8a.9.9,0,0,0-1.3-1.3l-1.8.9a1.6,1.6,0,0,1-1.5.1,1.7,1.7,0,0,1-1.1-1.2L25,20.7a1.1,1.1,0,0,0-2,0l-.5,1.9a1.7,1.7,0,0,1-1.1,1.2,1.6,1.6,0,0,1-1.5-.1l-1.8-.9a.9.9,0,0,0-1.3,1.3l.9,1.8a1.6,1.6,0,0,1,.1,1.5,1.7,1.7,0,0,1-1.1,1.1l-2,.5a1.1,1.1,0,0,0,0,2l1.9.5a1.7,1.7,0,0,1,1.2,1.1,1.6,1.6,0,0,1-.1,1.5l-.9,1.8a.9.9,0,0,0,1.3,1.3l1.8-.9a1.6,1.6,0,0,1,1.5-.1,1.7,1.7,0,0,1,1.1,1.1l.5,2a1.1,1.1,0,0,0,2,0l.5-1.9a1.7,1.7,0,0,1,1.1-1.2,1.6,1.6,0,0,1,1.5.1Zm-7.4-6.7a2,2,0,1,1,2-2A2,2,0,0,1,22.5,30.5Zm4,2a1,1,0,1,1,1-1A1,1,0,0,1,26.5,32.5Z"/>
      </g>
    </g>
  </g>
</svg>
