<svg xmlns="http://www.w3.org/2000/svg" width="48" height="48" viewBox="0 0 48 48">
  <g id="Layer_2" data-name="Layer 2">
    <g id="invisible_box" data-name="invisible box">
      <rect width="48" height="48" fill="none"/>
    </g>
    <g id="Health_Icons" data-name="Health Icons">
      <g>
        <path d="M30,17.9a5,5,0,0,0-1.4-3.4A5.1,5.1,0,0,0,25.1,13,5.2,5.2,0,0,0,21,15.6,5.2,5.2,0,0,0,16.9,13a5.1,5.1,0,0,0-3.5,1.5A5,5,0,0,0,12,17.9a6.4,6.4,0,0,0,2,4l6.7,7a.6.6,0,0,0,.6,0l6.7-7A6.4,6.4,0,0,0,30,17.9Z"/>
        <path d="M43.9,24.8a54.8,54.8,0,0,1-4.6-7.2Q36.9,1.4,21,1.7C15,1.8,10.1,3.8,6.7,7.5a18.5,18.5,0,0,0-4.4,14A17.2,17.2,0,0,0,6.5,32.3C9,35.6,9.4,39.1,8.3,43.2a2,2,0,0,0,1.4,2.4,2,2,0,0,0,2.5-1.4c1.5-5.5.6-10.3-2.5-14.4a12.9,12.9,0,0,1-3.4-8.6c-.3-4.4.9-8.3,3.4-11s6.5-4.4,11.4-4.5S33.7,6.9,35.3,18.1c.2,1.3,1.9,4.1,3.8,6.8l-2.2.8a1.8,1.8,0,0,0-1.4,1.8v2.9c.1,2.8.1,5.1-.5,5.8s-1.9.7-4.1.7A4,4,0,0,0,27,40.8v2.8a2,2,0,0,0,4,0V40.9c2.4,0,5.1-.3,6.8-1.9s1.8-4.6,1.7-8.6V29l3.4-1.1a2.2,2.2,0,0,0,1.2-1.3A2.2,2.2,0,0,0,43.9,24.8Z"/>
      </g>
    </g>
  </g>
</svg>
