<svg xmlns="http://www.w3.org/2000/svg" width="48" height="48" viewBox="0 0 48 48">
  <g id="Layer_2" data-name="Layer 2">
    <g id="invisible_box" data-name="invisible box">
      <rect width="48" height="48" fill="none"/>
    </g>
    <g id="Icons">
      <g>
        <path d="M25.5,25.7l-1.5,1-1.5-1a2.2,2.2,0,0,0-2.8.7,2.1,2.1,0,0,0,.7,2.8L23,30.7a1.8,1.8,0,0,0,2,0l2.6-1.5a2.1,2.1,0,0,0,.7-2.8A2.2,2.2,0,0,0,25.5,25.7Z"/>
        <path d="M3,18.7l2.5,1.5a2.3,2.3,0,0,0,1.1.3,2.1,2.1,0,0,0,1.7-.9A2,2,0,0,0,7.8,17a2,2,0,0,0,.5-2.6,2.2,2.2,0,0,0-2.8-.7L3,15.3A1.9,1.9,0,0,0,2,17,2.1,2.1,0,0,0,3,18.7Z"/>
        <path d="M12,14.2a1.9,1.9,0,0,0,1-.3l4.1-2.4a2,2,0,0,0,.6-2.7A1.9,1.9,0,0,0,15,8.1l-4.1,2.4a2,2,0,0,0-.6,2.7A1.8,1.8,0,0,0,12,14.2Z"/>
        <path d="M22.5,8.3l1.5-1,1.5,1a2.2,2.2,0,0,0,1.1.2,2,2,0,0,0,1.7-.9,2.1,2.1,0,0,0-.7-2.8L25,3.3a1.8,1.8,0,0,0-2,0L20.4,4.8a2.1,2.1,0,0,0-.7,2.8A2.2,2.2,0,0,0,22.5,8.3Z"/>
        <path d="M30.9,11.5,35,13.9a1.9,1.9,0,0,0,1,.3,1.8,1.8,0,0,0,1.7-1,2,2,0,0,0-.6-2.7L33,8.1a1.9,1.9,0,0,0-2.7.7A2,2,0,0,0,30.9,11.5Z"/>
        <path d="M40.2,17a2,2,0,0,0-.5,2.6,2.1,2.1,0,0,0,1.7.9,2.3,2.3,0,0,0,1.1-.3L45,18.7A2.1,2.1,0,0,0,46,17a1.9,1.9,0,0,0-1-1.7l-2.5-1.6a2.2,2.2,0,0,0-2.8.7A2,2,0,0,0,40.2,17Z"/>
        <path d="M45,28.3l-7.9-4.8h0a2.1,2.1,0,0,0,.6-2.8,1.9,1.9,0,0,0-2.7-.6l-4.1,2.4a2,2,0,0,0-.6,2.7,1.8,1.8,0,0,0,1.7,1,1.9,1.9,0,0,0,1-.3h.2l.5.3L40.1,30,24,39.7,7.9,30l6.9-4.2H15a1.9,1.9,0,0,0,1,.3,1.8,1.8,0,0,0,1.7-1,2,2,0,0,0-.6-2.7L13,20.1a1.9,1.9,0,0,0-2.7.6,2.1,2.1,0,0,0,.6,2.8h0L3,28.3A1.9,1.9,0,0,0,2,30a2.1,2.1,0,0,0,1,1.7l20,12a1.8,1.8,0,0,0,2,0l20-12A2.1,2.1,0,0,0,46,30,1.9,1.9,0,0,0,45,28.3Z"/>
      </g>
    </g>
  </g>
</svg>
