<svg xmlns="http://www.w3.org/2000/svg" width="48" height="48" viewBox="0 0 48 48">
  <g id="Layer_2" data-name="Layer 2">
    <g id="invisible_box" data-name="invisible box">
      <rect width="48" height="48" fill="none"/>
    </g>
    <g id="Layer_7" data-name="Layer 7">
      <path d="M35.8,11a3.2,3.2,0,0,0-2.2-1H32V8a2.9,2.9,0,0,0-3-3H5A2.9,2.9,0,0,0,2,8V35a2.9,2.9,0,0,0,3,3H7.3a7,7,0,0,0,13.4,0h6.6a7,7,0,0,0,13.4,0H43a2.9,2.9,0,0,0,3-3V22.2Zm-2.7,3,7.3,8H32V14ZM14,39a3,3,0,1,1,3-3A2.9,2.9,0,0,1,14,39Zm20,0a3,3,0,1,1,3-3A2.9,2.9,0,0,1,34,39Z"/>
    </g>
  </g>
</svg>
