<svg xmlns="http://www.w3.org/2000/svg" width="48" height="48" viewBox="0 0 48 48">
  <g id="Layer_2" data-name="Layer 2">
    <g id="invisible_box" data-name="invisible box">
      <rect width="48" height="48" fill="none"/>
    </g>
    <g id="Icons">
      <g>
        <path d="M6,37V33.4A21.7,21.7,0,0,1,16,31a20.6,20.6,0,0,1,7,1.2,13.7,13.7,0,0,1,.9-4A26.1,26.1,0,0,0,16,27,25.6,25.6,0,0,0,3,30.5l-1,.6V39a2,2,0,0,0,2,2H25.8a12,12,0,0,1-2.2-4Z"/>
        <path d="M16,23a9,9,0,1,0-9-9A9,9,0,0,0,16,23ZM16,9a5,5,0,1,1-5,5A5,5,0,0,1,16,9Z"/>
        <path d="M46,34.1V31.9L42.4,31l-.5-1.1,2-3.2-1.6-1.6-3.2,2L38,26.6,37.1,23H34.9L34,26.6l-1.1.5-3.2-2-1.6,1.6,2,3.2L29.6,31l-3.6.9v2.2l3.6.9.5,1.1-2,3.2,1.6,1.6,3.2-2,1.1.5.9,3.6h2.2l.9-3.6,1.1-.5,3.2,2,1.6-1.6-2-3.2.5-1.1ZM36,36a3,3,0,1,1,3-3A2.9,2.9,0,0,1,36,36Z"/>
      </g>
    </g>
  </g>
</svg>
