<svg xmlns="http://www.w3.org/2000/svg" width="48" height="48" viewBox="0 0 48 48">
  <g id="Layer_2" data-name="Layer 2">
    <g id="invisible_box" data-name="invisible box">
      <rect width="48" height="48" fill="none"/>
    </g>
    <g id="Layer_7" data-name="Layer 7">
      <path d="M42,38H28.6A5.1,5.1,0,0,0,26,35.4V31H39a2,2,0,0,0,2-2V14a2,2,0,0,0-2-2H37V8a2,2,0,0,0-2-2H22L19,3H9A2,2,0,0,0,7,5V25a6,6,0,0,0,6,6h9v4.4A4.7,4.7,0,0,0,19.4,38H6a2,2,0,0,0,0,4H19.4a5,5,0,0,0,9.2,0H42a2,2,0,0,0,0-4ZM15,14V24.9A2.1,2.1,0,0,1,13.3,27,2,2,0,0,1,11,25V7h6.3l3,3H33v2H17A2,2,0,0,0,15,14Zm9,27a1,1,0,1,1,1-1A.9.9,0,0,1,24,41Z"/>
    </g>
  </g>
</svg>
