<svg xmlns="http://www.w3.org/2000/svg" width="48" height="48" viewBox="0 0 48 48"><rect width="48" height="48" fill="none"/><path d="M35.4,17.3a7.9,7.9,0,0,0,3.4-6.6,8.2,8.2,0,0,0-8.1-8.2H17.3a8.2,8.2,0,0,0-8.1,8.2,7.9,7.9,0,0,0,3.4,6.6,8.3,8.3,0,0,0,0,13.4,7.9,7.9,0,0,0-3.4,6.6,8.2,8.2,0,0,0,8.1,8.2,8.2,8.2,0,0,0,8.2-8.2v-7a7.9,7.9,0,0,0,5.2,1.9,8.2,8.2,0,0,0,4.7-14.9Zm.4-6.6a5.1,5.1,0,0,1-5.1,5.1H25.5V5.5h5.2A5.1,5.1,0,0,1,35.8,10.7Zm-23.6,0a5.1,5.1,0,0,1,5.1-5.2h5.2V15.8H17.3A5.1,5.1,0,0,1,12.2,10.7Zm0,13.3a5.2,5.2,0,0,1,5.1-5.2h5.2V29.2H17.3A5.2,5.2,0,0,1,12.2,24ZM22.5,37.3a5.2,5.2,0,1,1-5.2-5.1h5.2Zm8.2-8.1A5.2,5.2,0,1,1,35.8,24,5.2,5.2,0,0,1,30.7,29.2Z"/></svg>