<svg xmlns="http://www.w3.org/2000/svg" width="48" height="48" viewBox="0 0 48 48"><rect width="48" height="48" fill="none"/><path d="M25.6,11.7,17.8,24.5l8.3,13.6a.4.4,0,0,1,.1.3c-.1.1-.2,0-.3,0H20c-.5,0-.7,0-.9-.3l-1.7-3.2c-.5-1.1-1.1-2.1-1.7-3.3s-1.3-2.2-1.9-3.3h0L12,31.6c-.6,1.1-1.2,2.2-1.7,3.3L8.5,38.2a.6.6,0,0,1-.6.3H2.2c-.1,0-.2,0-.2-.1a.4.4,0,0,1,.1-.3l8-13.2L2.3,11.7v-.3H8.7l.3.3c.5,1.1,1,2.2,1.6,3.3s1.2,2.2,1.9,3.3,1.2,2.2,1.7,3.3h.1c.5-1.2,1.1-2.3,1.6-3.4l1.8-3.2c.6-1.1,1.2-2.2,1.7-3.3l.2-.2h5.8l.3.2v.2ZM41.5,38.6a25.8,25.8,0,0,0,4.2-1.2.5.5,0,0,0,.3-.5c0-.4-.1-.9-.1-1.5s-.1-1-.1-1.5V9.3h0a.2.2,0,0,0-.2-.2H40.3c-.1,0-.2.1-.2.3v8.2H38.7a13.3,13.3,0,0,0-6.5,1.5,11.2,11.2,0,0,0-4.1,4,9.8,9.8,0,0,0-1.4,5.5,11,11,0,0,0,1.4,5.9A9.4,9.4,0,0,0,32,37.8,13,13,0,0,0,37.5,39,25.8,25.8,0,0,0,41.5,38.6Zm-2.4-4.7h-1a5.4,5.4,0,0,1-2.2-.4,3.2,3.2,0,0,1-1.7-1A4.4,4.4,0,0,1,33,30.8a6.3,6.3,0,0,1-.4-2.7,5.6,5.6,0,0,1,.8-3.3,5.7,5.7,0,0,1,2.2-1.9,5.9,5.9,0,0,1,2.9-.7h1.6V33.8Z"/></svg>