<svg xmlns="http://www.w3.org/2000/svg" viewBox="0 0 48 48"><defs><style>.cls-1{fill:none;}</style></defs><g id="Layer_2" data-name="Layer 2"><g id="Icons"><rect class="cls-1" width="48" height="48"/><circle cx="20.56" cy="27.4" r="4.26"/><path d="M31.09,2H16.91A14.92,14.92,0,0,0,2,16.91V31.09A14.92,14.92,0,0,0,16.91,46H31.09A14.92,14.92,0,0,0,46,31.09V16.91A14.92,14.92,0,0,0,31.09,2ZM20.56,35.72a8.32,8.32,0,1,1,8.31-8.32A8.32,8.32,0,0,1,20.56,35.72Zm15.19-.18H31.63V16.36H12.42V12.28H35.75Z"/></g></g></svg>