<svg xmlns="http://www.w3.org/2000/svg" width="48" height="48" viewBox="0 0 48 48">
  <title>accessibility-wheelchair</title>
  <g id="Layer_2" data-name="Layer 2">
    <g id="invisible_box" data-name="invisible box">
      <rect width="48" height="48" fill="none"/>
    </g>
    <g id="icons_Q2" data-name="icons Q2">
      <g>
        <path d="M43,36.7A2.1,2.1,0,0,0,40.9,35H38.8l-9-9H21V22h7.9A2.1,2.1,0,0,0,31,20.3,2,2,0,0,0,29,18H21V15.1A2.1,2.1,0,0,0,19.3,13,2,2,0,0,0,17,15V28a2,2,0,0,0,2,2h9.2l9,9H41A2,2,0,0,0,43,36.7Z"/>
        <path d="M18,41a9,9,0,0,1-9-9,9.1,9.1,0,0,1,4-7.5V20A13,13,0,1,0,29.8,37.6l-3.1-3.1A9.2,9.2,0,0,1,18,41Z"/>
        <circle cx="19" cy="7" r="4"/>
      </g>
    </g>
  </g>
</svg>
