<svg xmlns="http://www.w3.org/2000/svg" viewBox="0 0 48 48"><defs><style>.cls-1{fill:none;}</style></defs><g id="Layer_2" data-name="Layer 2"><g id="Icons"><rect class="cls-1" width="48" height="48"/><g id="Outlined_Mnemonics_Logos" data-name="Outlined Mnemonics Logos"><g id="Xd"><path d="M25.6,11.68l-7.76,12.8,8.27,13.58a.42.42,0,0,1,.05.31c0,.1-.12,0-.28.05H20c-.42,0-.7,0-.88-.29C18.54,37.05,18,36,17.42,34.9s-1.13-2.14-1.76-3.26-1.24-2.22-1.86-3.36h-.05c-.54,1.11-1.14,2.23-1.73,3.34s-1.19,2.22-1.76,3.31-1.19,2.2-1.78,3.26c-.11.25-.31.28-.6.28H2.19c-.1,0-.18.05-.18-.08a.34.34,0,0,1,.05-.28l8-13.19L2.27,11.65c-.08-.1-.1-.2,0-.26a.31.31,0,0,1,.26-.1H8.35a2,2,0,0,1,.36.05.73.73,0,0,1,.26.24c.49,1.11,1.06,2.22,1.65,3.33s1.22,2.2,1.86,3.29,1.19,2.17,1.74,3.28h0c.54-1.14,1.11-2.25,1.68-3.34s1.16-2.17,1.76-3.25,1.16-2.2,1.73-3.26a.43.43,0,0,1,.16-.26.46.46,0,0,1,.33,0h5.46a.23.23,0,0,1,.28.18s0,.13-.07.18Z"/><path d="M37.54,39A12.85,12.85,0,0,1,32,37.8a9,9,0,0,1-3.9-3.52,11.16,11.16,0,0,1-1.42-5.9,10.52,10.52,0,0,1,1.42-5.45,10.7,10.7,0,0,1,4.11-4,13.2,13.2,0,0,1,6.54-1.5,4.13,4.13,0,0,1,.55,0c.23,0,.49,0,.8.05V9.33c0-.19.08-.29.26-.29h5.25a.22.22,0,0,1,.25.18V33.89c0,.47,0,1,.06,1.55s.07,1.07.1,1.5a.43.43,0,0,1-.26.42,19.78,19.78,0,0,1-4.21,1.24A23.13,23.13,0,0,1,37.54,39Zm2.54-5.17V22.41c-.23-.05-.47-.1-.7-.13s-.57-.05-.85-.05a6.49,6.49,0,0,0-2.93.67,5.38,5.38,0,0,0-3.05,5.2A7.29,7.29,0,0,0,33,30.76a5.07,5.07,0,0,0,1.17,1.84,4.3,4.3,0,0,0,1.75,1,6.62,6.62,0,0,0,2.15.34c.39,0,.75,0,1.09,0A2.26,2.26,0,0,0,40.08,33.79Z"/></g></g></g></g></svg>