<svg xmlns="http://www.w3.org/2000/svg" width="48" height="48" viewBox="0 0 48 48">
  <title>Asset 840</title>
  <g id="Layer_2" data-name="Layer 2">
    <g id="invisible_box" data-name="invisible box">
      <rect width="48" height="48" fill="none"/>
    </g>
    <g id="Q3_icons" data-name="Q3 icons">
      <g>
        <rect x="17" y="2" width="14" height="21" rx="1"/>
        <path d="M17,45a.9.9,0,0,0,1,1H30a.9.9,0,0,0,1-1V30H17Z"/>
        <path d="M2,35a.9.9,0,0,0,.4.8l11,8.5a1,1,0,0,0,1.6-.8V29.6L2,19.4Z"/>
        <path d="M13.4,3.7l-11,8.5A.9.9,0,0,0,2,13v3.4L13.3,25l1.4-1.2a1.1,1.1,0,0,0,.3-.7V4.5A1,1,0,0,0,13.4,3.7Z"/>
        <path d="M45.6,12.2l-11-8.5a1,1,0,0,0-1.6.8V23.1a1.1,1.1,0,0,0,.3.7L34.7,25,46,16.5V13A.9.9,0,0,0,45.6,12.2Z"/>
        <path d="M33,43.5a1,1,0,0,0,1.6.8l11-8.5A.9.9,0,0,0,46,35V19.5L33,29.6Z"/>
      </g>
    </g>
  </g>
</svg>
