<svg xmlns="http://www.w3.org/2000/svg" width="48" height="48" viewBox="0 0 48 48">
  <g id="Layer_2" data-name="Layer 2">
    <g id="invisible_box" data-name="invisible box">
      <rect width="48" height="48" fill="none"/>
    </g>
    <g id="Health_Icons" data-name="Health Icons">
      <g>
        <path d="M37.7,11.1A3,3,0,0,0,35.4,10H34.2l.3-1.7A3.1,3.1,0,0,0,33.9,6a3.2,3.2,0,0,0-2.2-1H7.8a2,2,0,0,0,0,4H30.3l-4,22.9a6.8,6.8,0,0,0-1,2.1H20.7A7,7,0,0,0,7.3,34H6.2l.5-2.9a2,2,0,0,0-1.6-2.3,2,2,0,0,0-2.3,1.6L2,34.7A2.8,2.8,0,0,0,2.7,37a2.8,2.8,0,0,0,2.1,1H7.3a7,7,0,0,0,13.4,0h4.6a7,7,0,0,0,13.4,0h2a3.2,3.2,0,0,0,3.1-2.7L46,22.5ZM14,39a3,3,0,0,1-3-3,3,3,0,0,1,6,0A3,3,0,0,1,14,39ZM33.5,14h1.3l5.9,8H32.1ZM32,39a3,3,0,0,1-3-3,3,3,0,0,1,6,0A3,3,0,0,1,32,39Zm8-5H38.7A7,7,0,0,0,32,29H30.9l.5-3.1h9.9Z"/>
        <path d="M4,15H14a2,2,0,0,0,0-4H4a2,2,0,0,0,0,4Z"/>
        <path d="M15,19a2,2,0,0,0-2-2H5a2,2,0,0,0,0,4h8A2,2,0,0,0,15,19Z"/>
        <path d="M6,23a2,2,0,0,0,0,4h6a2,2,0,0,0,0-4Z"/>
      </g>
    </g>
  </g>
</svg>
