<svg xmlns="http://www.w3.org/2000/svg" width="48" height="48" viewBox="0 0 48 48">
  <g id="Layer_2" data-name="Layer 2">
    <g id="invisible_box" data-name="invisible box">
      <rect width="48" height="48" fill="none"/>
    </g>
    <g id="Icons">
      <g>
        <path d="M20.1,20.5a2.3,2.3,0,0,0-2.2,2.4,2.3,2.3,0,0,0,2.2,2.4,2.4,2.4,0,0,0,0-4.8Z"/>
        <path d="M28,20.5a2.4,2.4,0,1,0,2.2,2.4A2.3,2.3,0,0,0,28,20.5Z"/>
        <path d="M38.5,2H9.5A4.5,4.5,0,0,0,5,6.5V36.3a4.5,4.5,0,0,0,4.5,4.5H34.1l-1.2-4.1,2.8,2.7,2.6,2.4L43,46V6.5A4.5,4.5,0,0,0,38.5,2ZM30.2,30.7l-1.5-1.8a6.9,6.9,0,0,0,4-2.6,15.1,15.1,0,0,1-2.5,1.3,14.6,14.6,0,0,1-3.2,1,15,15,0,0,1-5.6,0,20.2,20.2,0,0,1-3.2-1l-1.6-.7h-.2c0-.1,0-.1-.1-.1l-.6-.4a6.9,6.9,0,0,0,3.8,2.6l-1.4,1.8a8,8,0,0,1-6.7-3.3,29,29,0,0,1,3.2-12.8,10.3,10.3,0,0,1,6.1-2.3l.2.2a15.4,15.4,0,0,0-5.7,2.9l1.3-.6a12.7,12.7,0,0,1,4.9-1.4h.4a20.6,20.6,0,0,1,4.3,0,16.3,16.3,0,0,1,6.6,2.1,13.5,13.5,0,0,0-5.4-2.8l.3-.3a10.3,10.3,0,0,1,6.1,2.3,29.7,29.7,0,0,1,3.1,12.8S35,30.6,30.2,30.7Z"/>
      </g>
    </g>
  </g>
</svg>
