<svg xmlns="http://www.w3.org/2000/svg" viewBox="0 0 48 48"><defs><style>.cls-1{fill:none;}</style></defs><g id="Layer_2" data-name="Layer 2"><g id="Icons"><rect class="cls-1" width="48" height="48"/><path d="M35.37,17.33A8.16,8.16,0,0,0,30.67,2.5H17.33a8.16,8.16,0,0,0-4.7,14.83,8.16,8.16,0,0,0,0,13.34A8.16,8.16,0,1,0,25.5,37.33v-7a8.16,8.16,0,1,0,9.87-13Zm.46-6.66a5.16,5.16,0,0,1-5.16,5.16H25.5V5.5h5.17A5.17,5.17,0,0,1,35.83,10.67Zm-23.66,0A5.17,5.17,0,0,1,17.33,5.5H22.5V15.83H17.33A5.16,5.16,0,0,1,12.17,10.67Zm0,13.33a5.17,5.17,0,0,1,5.16-5.17H22.5V29.17H17.33A5.17,5.17,0,0,1,12.17,24ZM22.5,37.33a5.17,5.17,0,1,1-5.17-5.16H22.5Zm8.17-8.16A5.17,5.17,0,1,1,35.83,24,5.18,5.18,0,0,1,30.67,29.17Z"/></g></g></svg>