<svg xmlns="http://www.w3.org/2000/svg" width="48" height="48" viewBox="0 0 48 48">
  <g id="Layer_2" data-name="Layer 2">
    <g id="invisible_box" data-name="invisible box">
      <rect width="48" height="48" fill="none"/>
    </g>
    <g id="Layer_4" data-name="Layer 4">
      <path d="M43,41.6A11,11,0,0,1,35.1,45a12,12,0,0,1-3.3-.5l-1-.3A3.9,3.9,0,0,1,28,40.4V30l6.8,5.1a1.9,1.9,0,0,0,1.2.4,2.1,2.1,0,0,0,1.6-.8,2,2,0,0,0-.4-2.8L24,22,10.8,31.9a2,2,0,1,0,2.4,3.2L20,30V40.4a3.9,3.9,0,0,1-2.8,3.8l-1,.3a12,12,0,0,1-3.3.5A11,11,0,0,1,5,41.6,10,10,0,0,1,2.6,31.1v-.2L8.3,17a5.9,5.9,0,0,1,5.6-4A5.9,5.9,0,0,1,20,18.8v.7L22,18V5a2,2,0,0,1,4,0V18l2,1.5v-.7A6,6,0,0,1,39.7,17l5.7,14.1A10,10,0,0,1,43,41.6Z"/>
    </g>
  </g>
</svg>
