<svg xmlns="http://www.w3.org/2000/svg" width="48" height="48" viewBox="0 0 48 48">
  <g id="Layer_2" data-name="Layer 2">
    <g id="invisible_box" data-name="invisible box">
      <rect width="48" height="48" fill="none"/>
    </g>
    <g id="Layer_7" data-name="Layer 7">
      <g>
        <path d="M29.3,15.9a3,3,0,0,0-4.3,0L3.9,37A3.1,3.1,0,0,0,3,39.2a2.7,2.7,0,0,0,.9,2.1l2.8,2.8a2.9,2.9,0,0,0,2.1.9,3.1,3.1,0,0,0,2.2-.9L32.1,23a3.1,3.1,0,0,0,.9-2.2,2.7,2.7,0,0,0-.9-2.1Zm-3.8,8-1.4-1.4,3.1-3.1,1.4,1.4Z"/>
        <path d="M38,13V11h2a2,2,0,0,0,0-4H38V5a2,2,0,0,0-4,0V7H32a2,2,0,0,0,0,4h2v2a2,2,0,0,0,4,0Z"/>
        <path d="M43,22H42V21a2,2,0,0,0-4,0v1H37a2,2,0,0,0,0,4h1v1a2,2,0,0,0,4,0V26h1a2,2,0,0,0,0-4Z"/>
        <path d="M16,13h1v1a2,2,0,0,0,4,0V13h1a2,2,0,0,0,0-4H21V8a2,2,0,0,0-4,0V9H16a2,2,0,0,0,0,4Z"/>
      </g>
    </g>
  </g>
</svg>
