<svg xmlns="http://www.w3.org/2000/svg" width="48" height="48" viewBox="0 0 48 48">
  <g id="Layer_2" data-name="Layer 2">
    <g id="invisible_box" data-name="invisible box">
      <rect width="48" height="48" fill="none"/>
    </g>
    <g id="Layer_7" data-name="Layer 7">
      <path d="M43,10H5a2.9,2.9,0,0,0-3,3V35a3,3,0,0,0,3,3H43a3,3,0,0,0,3-3V13A2.9,2.9,0,0,0,43,10ZM13,28a4,4,0,1,1,4-4A4,4,0,0,1,13,28Zm11,0a4,4,0,1,1,4-4A4,4,0,0,1,24,28Zm11,0a4,4,0,1,1,4-4A4,4,0,0,1,35,28Z"/>
    </g>
  </g>
</svg>
