<svg xmlns="http://www.w3.org/2000/svg" width="48" height="48" viewBox="0 0 48 48">
  <g id="Layer_2" data-name="Layer 2">
    <g id="Layer_7" data-name="Layer 7">
      <rect width="48" height="48" fill="none"/>
      <g>
        <path d="M25,15H23a2,2,0,0,0-2,2v4H17a2,2,0,0,0-2,2v2a2,2,0,0,0,2,2h4v4a2,2,0,0,0,2,2h2a2,2,0,0,0,2-2V27h4a2,2,0,0,0,2-2V23a2,2,0,0,0-2-2H27V17A2,2,0,0,0,25,15Z"/>
        <path d="M24,2A21.8,21.8,0,0,0,8,8.9V5A2,2,0,0,0,5.7,3,2.1,2.1,0,0,0,4,5.1V14a2,2,0,0,0,2,2h9a2,2,0,0,0,2-2.3A2.1,2.1,0,0,0,14.9,12H10.6A18,18,0,0,1,41.9,22.2a2,2,0,0,0,2,1.8h0a2,2,0,0,0,2-2.2A22,22,0,0,0,24,2Z"/>
        <path d="M42,32H33a2,2,0,0,0-2,2.3A2.1,2.1,0,0,0,33.1,36h4.3A18,18,0,0,1,6.1,25.8a2,2,0,0,0-2-1.8h0a2,2,0,0,0-2,2.2A22,22,0,0,0,40,39.1V43a2,2,0,0,0,2.3,2A2.1,2.1,0,0,0,44,42.9V34A2,2,0,0,0,42,32Z"/>
      </g>
    </g>
  </g>
</svg>
