<svg xmlns="http://www.w3.org/2000/svg" width="48" height="48" viewBox="0 0 48 48">
  <g id="Layer_2" data-name="Layer 2">
    <g id="invisible_box" data-name="invisible box">
      <rect width="48" height="48" fill="none"/>
    </g>
    <g id="Icons">
      <g>
        <path d="M24,2A21.8,21.8,0,0,0,8,8.9V7A2,2,0,0,0,5.7,5,2.1,2.1,0,0,0,4,7.1V14a2,2,0,0,0,2,2h7a2,2,0,0,0,2-2.3A2.1,2.1,0,0,0,12.9,12H10.6A18,18,0,0,1,41.9,22.2a2,2,0,0,0,2,1.8h0a2,2,0,0,0,2-2.2A22,22,0,0,0,24,2Z"/>
        <path d="M42,32H35a2,2,0,0,0-2,2.3A2.1,2.1,0,0,0,35.1,36h2.3A18,18,0,0,1,6.1,25.8a2,2,0,0,0-2-1.8h0a2,2,0,0,0-2,2.2A22,22,0,0,0,40,39.1V41a2,2,0,0,0,2.3,2A2.1,2.1,0,0,0,44,40.9V34A2,2,0,0,0,42,32Z"/>
        <path d="M18.1,33a37.6,37.6,0,0,0,5.4,3.8l.5.2.5-.2c1.9-1.1,9.5-5.5,9.5-10.5V17.4L24,13.2,14,17.4v8.9c0,2.5,1.9,4.8,4,6.6h.1ZM24,17.5l6,2.6v6.2c0,.2-.2,2.4-6,6.1h0Z"/>
      </g>
    </g>
  </g>
</svg>
