<svg xmlns="http://www.w3.org/2000/svg" width="48" height="48" viewBox="0 0 48 48">
  <g id="Layer_2" data-name="Layer 2">
    <g id="invisible_box" data-name="invisible box">
      <rect width="48" height="48" fill="none"/>
    </g>
    <g id="Icons">
      <g>
        <path d="M24,2.1,6,8.1V26.3c0,9.1,13.3,17.2,17,19.4a1.8,1.8,0,0,0,2,0c3.8-2.1,17-10.3,17-19.4V8.1ZM38,26.3c0,5-7.1,11.4-14,15.4C11.4,33.9,10,28.4,10,26.3V11L24,6.3,38,11Z"/>
        <path d="M18.3,12.1A8.8,8.8,0,0,0,15,18.9a2,2,0,0,0,4,0,5.3,5.3,0,0,1,1.8-3.8,5.3,5.3,0,0,1,4.2-1,4.9,4.9,0,0,1,1.2,9.3,7.1,7.1,0,0,0-3.7,3.9,2,2,0,0,0,1.1,2.6h.8a1.9,1.9,0,0,0,1.8-1.3A3.7,3.7,0,0,1,27.8,27a8.9,8.9,0,0,0-2-16.8A8.5,8.5,0,0,0,18.3,12.1Z"/>
        <circle cx="24" cy="36" r="2"/>
      </g>
    </g>
  </g>
</svg>
