<svg xmlns="http://www.w3.org/2000/svg" width="48" height="48" viewBox="0 0 48 48">
  <g id="Layer_2" data-name="Layer 2">
    <g id="invisible_box" data-name="invisible box">
      <rect width="48" height="48" fill="none"/>
    </g>
    <g id="Layer_7" data-name="Layer 7">
      <path d="M43.9,24.8a54.8,54.8,0,0,1-4.6-7.2Q36.9,1.4,21,1.7C15,1.8,10.1,3.8,6.7,7.5a18.7,18.7,0,0,0-4.4,14A17.8,17.8,0,0,0,6.5,32.3C9,35.6,9.4,39.1,8.3,43.2,8,44.2,8,46,10,46H29a2.4,2.4,0,0,0,2-2.4V40.9c2.4,0,5.2-.3,6.8-1.9s1.8-4.6,1.7-8.7V29l3.4-1.2a1.8,1.8,0,0,0,1.2-1.2A2.2,2.2,0,0,0,43.9,24.8ZM28,21.9l-6.7,7a.6.6,0,0,1-.6,0l-6.7-7a6.4,6.4,0,0,1-2-4.1,4.8,4.8,0,0,1,1.4-3.4A5.5,5.5,0,0,1,16.9,13,5.2,5.2,0,0,1,21,15.6,5.2,5.2,0,0,1,25.1,13a5.5,5.5,0,0,1,3.5,1.4A4.8,4.8,0,0,1,30,17.8,6.4,6.4,0,0,1,28,21.9Z"/>
    </g>
  </g>
</svg>
