<svg xmlns="http://www.w3.org/2000/svg" width="48" height="48" viewBox="0 0 48 48">
  <title>expand-vertical</title>
  <g id="Layer_2" data-name="Layer 2">
    <g id="invisible_box" data-name="invisible box">
      <rect width="48" height="48" fill="none"/>
    </g>
    <g id="icons_Q2" data-name="icons Q2">
      <path d="M24,39.2l6.6-6.6a1.9,1.9,0,0,1,3,.2,2.1,2.1,0,0,1-.2,2.7l-8,7.9a1.9,1.9,0,0,1-2.8,0l-8-7.9a2.1,2.1,0,0,1-.2-2.7,1.9,1.9,0,0,1,3-.2Z"/>
      <path d="M24,8.8l-6.6,6.6a1.9,1.9,0,0,1-3-.2,2.1,2.1,0,0,1,.2-2.7l8-7.9a1.9,1.9,0,0,1,2.8,0l8,7.9a2.1,2.1,0,0,1,.2,2.7,1.9,1.9,0,0,1-3,.2Z"/>
      <path d="M42,26H6a2,2,0,0,1,0-4H42a2,2,0,0,1,0,4Z"/>
    </g>
  </g>
</svg>
