<svg xmlns="http://www.w3.org/2000/svg" width="48" height="48" viewBox="0 0 48 48">
  <title>file-multiple-solid</title>
  <g id="Layer_2" data-name="Layer 2">
    <g id="invisible_box" data-name="invisible box">
      <rect width="48" height="48" fill="none"/>
      <rect width="48" height="48" fill="none"/>
    </g>
    <g id="icons_Q2" data-name="icons Q2">
      <path d="M42,2H12a2,2,0,0,0-2,2V6H40V40h2a2,2,0,0,0,2-2V4A2,2,0,0,0,42,2Zm-8,8H6a2,2,0,0,0-2,2V44a2,2,0,0,0,2,2H34a2,2,0,0,0,2-2V12A2,2,0,0,0,34,10ZM18,38H14a2,2,0,0,1,0-4h4a2,2,0,0,1,0,4Zm8-8H14a2,2,0,0,1,0-4H26a2,2,0,0,1,0,4Zm0-8H14a2,2,0,0,1,0-4H26a2,2,0,0,1,0,4Z"/>
    </g>
  </g>
</svg>
