<svg xmlns="http://www.w3.org/2000/svg" width="48" height="48" viewBox="0 0 48 48">
  <title>horoscope</title>
  <g id="Layer_2" data-name="Layer 2">
    <g id="invisible_box" data-name="invisible box">
      <rect width="48" height="48" fill="none"/>
    </g>
    <g id="icons_Q2" data-name="icons Q2">
      <path d="M35,32.4V11.6a26.2,26.2,0,0,0,8.5-6.3,1.9,1.9,0,0,0-.2-2.8,1.9,1.9,0,0,0-2.8.2A22.4,22.4,0,0,1,24,10,22.2,22.2,0,0,1,7.5,2.7a1.9,1.9,0,0,0-2.8-.2,1.9,1.9,0,0,0-.2,2.8A26.2,26.2,0,0,0,13,11.6V32.4a26.2,26.2,0,0,0-8.5,6.3,1.9,1.9,0,0,0,.2,2.8,1.9,1.9,0,0,0,2.8-.2,22.3,22.3,0,0,1,33,0A1.9,1.9,0,0,0,42,42a1.9,1.9,0,0,0,1.3-.5,1.9,1.9,0,0,0,.2-2.8A26.2,26.2,0,0,0,35,32.4ZM17,31V13a23.7,23.7,0,0,0,7,1,23.7,23.7,0,0,0,7-1V31a23.7,23.7,0,0,0-7-1A23.7,23.7,0,0,0,17,31Z"/>
    </g>
  </g>
</svg>
