<svg xmlns="http://www.w3.org/2000/svg" width="48" height="48" viewBox="0 0 48 48">
  <title>jira</title>
  <g id="Layer_2" data-name="Layer 2">
    <g id="invisible_box" data-name="invisible box">
      <rect width="48" height="48" fill="none"/>
    </g>
    <g id="Q3_icons" data-name="Q3 icons">
      <g>
        <path d="M30.3,29.5C40.1,19.8,39.8,13,39.8,13c0-1.6-1.4-.7-1.4-.7A11.5,11.5,0,0,1,32,14.4c-1,4.7-7,10.6-8.5,12-1-.9-7.6-7.1-8.7-12.1a11.5,11.5,0,0,1-6.4-2.1S7,11.4,7,13c0,0-.3,6.6,9.5,16.3s11,13.6,10.4,16.3h7.2a22.8,22.8,0,0,0-5.4-14.5Z"/>
        <path d="M16.9,33a23.1,23.1,0,0,0-4.2,13h7.2c-.3-1.7-.1-3.8,2.2-7.2A47.8,47.8,0,0,0,16.9,33Z"/>
        <path d="M23.5,21.3s3.8-3.5,4.1-5.3-.7-1.1-.7-1.1H19.8c-.9,0-.4,1.4-.4,1.4A24.5,24.5,0,0,0,23.5,21.3Z"/>
        <path d="M32.7,10.7a3.1,3.1,0,0,0,3.1-3.1,3.1,3.1,0,1,0-6.1,0A3,3,0,0,0,32.7,10.7Z"/>
        <path d="M14.5,10.7a3.1,3.1,0,1,0-3.1-3.1A3.1,3.1,0,0,0,14.5,10.7Z"/>
        <path d="M23.8,8.2a3.1,3.1,0,1,0-3.1-3.1A3.1,3.1,0,0,0,23.8,8.2Z"/>
      </g>
    </g>
  </g>
</svg>
