<svg xmlns="http://www.w3.org/2000/svg" width="48" height="48" viewBox="0 0 48 48">
  <title>zoom-in-solid</title>
  <g id="Layer_2" data-name="Layer 2">
    <g id="invisible_box" data-name="invisible box">
      <rect width="48" height="48" fill="none"/>
    </g>
    <g id="icons_Q2" data-name="icons Q2">
      <path d="M43.4,40.6,30.9,28.1A15,15,0,0,0,20.1,4a15,15,0,0,0-3,29.9,15.5,15.5,0,0,0,11-2.9L40.6,43.4a2,2,0,0,0,2.8-2.8ZM24,21H21v3a2,2,0,0,1-4,0V21H14a2,2,0,0,1,0-4h3V14a2,2,0,0,1,4,0v3h3a2,2,0,0,1,0,4Z"/>
    </g>
  </g>
</svg>
