<svg xmlns="http://www.w3.org/2000/svg" width="48" height="48" viewBox="0 0 48 48">
  <title>zoom-in</title>
  <g id="Layer_2" data-name="Layer 2">
    <g id="invisible_box" data-name="invisible box">
      <rect width="48" height="48" fill="none"/>
    </g>
    <g id="icons_Q2" data-name="icons Q2">
      <g>
        <path d="M43.4,40.6,30.9,28.1a14.8,14.8,0,0,0,3-10.9A15.2,15.2,0,0,0,20.1,4a15,15,0,0,0-3,29.9,15.3,15.3,0,0,0,11-2.9L40.6,43.4a2,2,0,0,0,2.8-2.8ZM29.8,20.9A11,11,0,1,1,8.2,17.1a10.8,10.8,0,0,1,8.9-8.9A10.9,10.9,0,0,1,29.8,20.9Z"/>
        <path d="M24,17H21V14a2,2,0,0,0-4,0v3H14a2,2,0,0,0,0,4h3v3a2,2,0,0,0,4,0V21h3a2,2,0,0,0,0-4Z"/>
      </g>
    </g>
  </g>
</svg>
